#N canvas 0 23 2560 1391 10;
#X obj 1500 716 delwrite~ delay1 1000;
#X obj 679 882 delread~ delay1;
#X obj 618 859 +~;
#X obj 946 857 r \$0-delaytime;
#X obj 667 1136 dac~;
#N canvas 0 23 2560 1391 piece-01 0;
#X obj 285 312 soundfiler;
#X obj 286 449 / 44100;
#X msg 218 541 1;
#X obj 218 570 /;
#X obj 218 597 phasor~;
#X obj 286 631 *~;
#X floatatom 403 353 20 0 0 0 - - -;
#X msg 257 565 0;
#X obj 286 422 r \$0-SAMPCOUNT-01;
#X obj 285 353 s \$0-SAMPCOUNT-01;
#X obj 347 609 r \$0-SAMPCOUNT-01;
#X obj 287 668 tabread4~ \$0-SAMPLE-01;
#X obj 285 248 f \$0;
#X obj 399 761 osc~ 12000;
#X obj 257 539 del;
#X obj 377 502 * 1000;
#X obj 218 489 t b f b;
#X text 284 538 stop playback after phasor~ reset;
#X obj 286 604 line~;
#X text 356 312 TODO: how to read and playback stereo?;
#X msg 286 562 1 \$1;
#X msg 329 575 0;
#X obj 287 775 *~;
#X msg 456 731 0;
#X text 481 730 reset phase;
#X obj 287 805 hip~ 6000;
#X obj 321 891 osc~ 12000;
#X msg 378 866 0;
#X obj 288 915 *~;
#X obj 288 948 lop~ 5500;
#X obj 287 710 lop~ 6000;
#X text 468 759 1st ring modulator;
#X text 292 728 1st freq. filter;
#X text 294 822 2nd freq. filter;
#X text 391 891 2nd ring modulator;
#X text 353 948 3rd freq. filter;
#X msg 285 274 read -resize ../assets/samples/Al_Baqara_253-262_001.wav
\$1-SAMPLE-01;
#X obj 263 1145 +~;
#X obj 252 1076 *~;
#X obj 284 1077 *~;
#X obj 357 1012 sig~;
#X obj 311 1012 sig~ 1;
#X obj 311 1042 -~;
#X floatatom 184 624 5 0 0 0 - - -;
#X obj 614 573 osc~ 0.5;
#X obj 571 536 +~;
#X obj 576 722 r \$0-frequency;
#X obj 526 863 r \$0-frequency;
#X obj 604 525 r \$0-pmfreq;
#X obj 670 614 r \$0-pmindex;
#X obj 369 982 r \$0-xfade;
#X obj 284 387 table \$0-SAMPLE-01;
#X obj 621 646 *~ 0.0001;
#X obj 254 186 inlet;
#X obj 228 1228 outlet~;
#X obj 398 1239 outlet;
#X connect 0 0 6 0;
#X connect 0 0 9 0;
#X connect 1 0 15 0;
#X connect 1 0 16 0;
#X connect 2 0 3 0;
#X connect 3 0 4 0;
#X connect 3 0 43 0;
#X connect 5 0 11 0;
#X connect 8 0 1 0;
#X connect 10 0 5 1;
#X connect 11 0 30 0;
#X connect 12 0 36 0;
#X connect 13 0 22 1;
#X connect 14 0 7 0;
#X connect 14 0 21 0;
#X connect 14 0 55 0;
#X connect 15 0 14 1;
#X connect 15 0 20 0;
#X connect 16 0 2 0;
#X connect 16 1 3 1;
#X connect 16 2 14 0;
#X connect 18 0 45 0;
#X connect 20 0 18 0;
#X connect 20 0 23 0;
#X connect 21 0 18 0;
#X connect 22 0 25 0;
#X connect 23 0 13 1;
#X connect 23 0 27 0;
#X connect 25 0 28 0;
#X connect 25 0 38 0;
#X connect 26 0 28 1;
#X connect 27 0 26 1;
#X connect 28 0 29 0;
#X connect 29 0 39 0;
#X connect 30 0 22 0;
#X connect 36 0 0 0;
#X connect 37 0 54 0;
#X connect 38 0 37 0;
#X connect 39 0 37 1;
#X connect 40 0 42 1;
#X connect 40 0 38 1;
#X connect 41 0 42 0;
#X connect 42 0 39 1;
#X connect 44 0 52 0;
#X connect 45 0 5 0;
#X connect 46 0 13 0;
#X connect 47 0 26 0;
#X connect 48 0 44 0;
#X connect 49 0 52 1;
#X connect 50 0 40 0;
#X connect 52 0 45 1;
#X connect 53 0 12 0;
#X restore 1021 275 pd piece-01;
#N canvas 0 23 2560 1391 beatgen 0;
#X text 899 543 BEATING OF SINE WAVES;
#X obj 929 565 hsl 515 18 55 440 1 0 \$0-freq1 empty empty -2 -6 1
8 -2688 -1 -1 4141 0;
#X obj 929 588 hsl 515 18 55 440 1 0 \$0-freq2 empty empty -2 -6 1
8 -1856 -1 -1 5491 0;
#X obj 929 611 hsl 515 18 44 440 1 0 \$0-freq3 empty empty -2 -6 1
8 -64 -1 -1 7903 0;
#X obj 945 863 *~;
#X obj 903 564 tgl 20 0 \$0-amp1 empty empty 0 -6 1 8 -2688 -1 -1 1
1;
#X obj 1368 915 *~;
#X obj 903 587 tgl 20 0 \$0-amp2 empty empty 0 -6 1 8 -1856 -1 -1 1
1;
#X obj 903 610 tgl 20 0 \$0-amp3 empty empty 0 -6 1 8 -64 -1 -1 1 1
;
#X obj 945 757 osc~ 55;
#X obj 945 682 r \$0-freq1;
#X obj 970 796 r \$0-amp1;
#X obj 970 840 line~;
#X obj 1068 863 *~;
#X obj 1068 757 osc~ 55;
#X obj 1093 840 line~;
#X obj 1192 863 *~;
#X obj 1189 757 osc~ 55;
#X obj 1217 840 line~;
#X obj 1093 796 r \$0-amp2;
#X obj 1068 682 r \$0-freq2;
#X obj 1189 682 r \$0-freq3;
#X obj 1217 796 r \$0-amp3;
#X obj 929 634 hsl 515 18 44 440 1 0 \$0-freq4 empty empty -2 -6 1
8 -38 -1 -1 3746 0;
#X obj 903 633 tgl 20 0 \$0-amp4 empty empty 0 -6 1 8 -38 -1 -1 1 1
;
#X obj 1313 863 *~;
#X obj 1312 757 osc~ 55;
#X obj 1338 840 line~;
#X obj 1312 682 r \$0-freq4;
#X obj 1338 796 r \$0-amp4;
#X obj 1383 879 r \$0-master-level;
#X obj 1368 976 outlet~;
#X obj 1368 945 *~ 0.25;
#X msg 945 707 \$1 200;
#X obj 945 732 line~;
#X msg 1068 707 \$1 200;
#X obj 1068 732 line~;
#X msg 1189 707 \$1 200;
#X obj 1189 732 line~;
#X msg 1312 707 \$1 200;
#X obj 1312 732 line~;
#X msg 970 818 \$1 200;
#X msg 1093 818 \$1 200;
#X msg 1217 818 \$1 200;
#X msg 1338 818 \$1 200;
#X msg 1569 880 1;
#X floatatom 1473 586 5 0 0 0 - - -;
#X floatatom 1473 610 5 0 0 0 - - -;
#X floatatom 1473 634 5 0 0 0 - - -;
#X floatatom 1473 658 5 0 0 0 - - -;
#X floatatom 826 617 5 0 0 0 - - -;
#X floatatom 826 536 5 0 0 0 - - -;
#X floatatom 826 563 5 0 0 0 - - -;
#X floatatom 826 590 5 0 0 0 - - -;
#X connect 1 0 46 0;
#X connect 2 0 47 0;
#X connect 3 0 48 0;
#X connect 4 0 6 0;
#X connect 6 0 32 0;
#X connect 9 0 4 0;
#X connect 10 0 33 0;
#X connect 11 0 41 0;
#X connect 12 0 4 1;
#X connect 13 0 6 0;
#X connect 14 0 13 0;
#X connect 15 0 13 1;
#X connect 16 0 6 0;
#X connect 17 0 16 0;
#X connect 18 0 16 1;
#X connect 19 0 42 0;
#X connect 20 0 35 0;
#X connect 21 0 37 0;
#X connect 22 0 43 0;
#X connect 23 0 49 0;
#X connect 25 0 6 0;
#X connect 26 0 25 0;
#X connect 27 0 25 1;
#X connect 28 0 39 0;
#X connect 29 0 44 0;
#X connect 30 0 6 1;
#X connect 32 0 31 0;
#X connect 33 0 34 0;
#X connect 34 0 9 0;
#X connect 35 0 36 0;
#X connect 36 0 14 0;
#X connect 37 0 38 0;
#X connect 38 0 17 0;
#X connect 39 0 40 0;
#X connect 40 0 26 0;
#X connect 41 0 12 0;
#X connect 42 0 15 0;
#X connect 43 0 18 0;
#X connect 44 0 27 0;
#X connect 45 0 6 1;
#X connect 50 0 23 0;
#X connect 51 0 1 0;
#X connect 52 0 2 0;
#X connect 53 0 3 0;
#X restore 1021 725 pd beatgen;
#X obj 614 904 *~ 0.33;
#X obj 1021 245 loadbang;
#N canvas 1280 23 1280 1391 piece-02 0;
#X obj 295 322 soundfiler;
#X obj 296 459 / 44100;
#X msg 228 551 1;
#X obj 228 580 /;
#X obj 228 607 phasor~;
#X obj 296 641 *~;
#X floatatom 413 363 20 0 0 0 - - -;
#X msg 267 575 0;
#X obj 295 258 f \$0;
#X obj 409 771 osc~ 12000;
#X obj 267 549 del;
#X obj 387 512 * 1000;
#X obj 228 499 t b f b;
#X text 294 548 stop playback after phasor~ reset;
#X obj 296 614 line~;
#X text 366 322 TODO: how to read and playback stereo?;
#X msg 296 572 1 \$1;
#X msg 339 585 0;
#X obj 297 785 *~;
#X msg 466 741 0;
#X text 491 740 reset phase;
#X obj 297 815 hip~ 6000;
#X obj 331 901 osc~ 12000;
#X msg 388 876 0;
#X obj 298 925 *~;
#X obj 298 958 lop~ 5500;
#X obj 297 720 lop~ 6000;
#X text 478 769 1st ring modulator;
#X text 302 738 1st freq. filter;
#X text 304 832 2nd freq. filter;
#X text 401 901 2nd ring modulator;
#X text 363 958 3rd freq. filter;
#X obj 273 1155 +~;
#X obj 262 1086 *~;
#X obj 294 1087 *~;
#X obj 367 1022 sig~;
#X obj 321 1022 sig~ 1;
#X obj 321 1052 -~;
#X floatatom 194 634 5 0 0 0 - - -;
#X obj 624 583 osc~ 0.5;
#X obj 581 546 +~;
#X obj 586 732 r \$0-frequency;
#X obj 536 873 r \$0-frequency;
#X obj 614 535 r \$0-pmfreq;
#X obj 680 624 r \$0-pmindex;
#X obj 379 992 r \$0-xfade;
#X obj 631 656 *~ 0.0001;
#X obj 264 196 inlet;
#X obj 238 1238 outlet~;
#X obj 408 1249 outlet;
#X msg 295 284 read -resize ../assets/samples/Al_Baqara_253-262_002.wav
\$1-SAMPLE-02;
#X obj 295 363 s \$0-SAMPCOUNT-02;
#X obj 294 397 table \$0-SAMPLE-02;
#X obj 296 432 r \$0-SAMPCOUNT-02;
#X obj 357 619 r \$0-SAMPCOUNT-02;
#X obj 297 678 tabread4~ \$0-SAMPLE-02;
#X connect 0 0 6 0;
#X connect 0 0 51 0;
#X connect 1 0 11 0;
#X connect 1 0 12 0;
#X connect 2 0 3 0;
#X connect 3 0 4 0;
#X connect 3 0 38 0;
#X connect 5 0 55 0;
#X connect 8 0 50 0;
#X connect 9 0 18 1;
#X connect 10 0 7 0;
#X connect 10 0 17 0;
#X connect 10 0 49 0;
#X connect 11 0 10 1;
#X connect 11 0 16 0;
#X connect 12 0 2 0;
#X connect 12 1 3 1;
#X connect 12 2 10 0;
#X connect 14 0 40 0;
#X connect 16 0 14 0;
#X connect 16 0 19 0;
#X connect 17 0 14 0;
#X connect 18 0 21 0;
#X connect 19 0 9 1;
#X connect 19 0 23 0;
#X connect 21 0 24 0;
#X connect 21 0 33 0;
#X connect 22 0 24 1;
#X connect 23 0 22 1;
#X connect 24 0 25 0;
#X connect 25 0 34 0;
#X connect 26 0 18 0;
#X connect 32 0 48 0;
#X connect 33 0 32 0;
#X connect 34 0 32 1;
#X connect 35 0 37 1;
#X connect 35 0 33 1;
#X connect 36 0 37 0;
#X connect 37 0 34 1;
#X connect 39 0 46 0;
#X connect 40 0 5 0;
#X connect 41 0 9 0;
#X connect 42 0 22 0;
#X connect 43 0 39 0;
#X connect 44 0 46 1;
#X connect 45 0 35 0;
#X connect 46 0 40 1;
#X connect 47 0 8 0;
#X connect 50 0 0 0;
#X connect 53 0 1 0;
#X connect 54 0 5 1;
#X connect 55 0 26 0;
#X restore 1021 305 pd piece-02;
#N canvas 1280 23 1280 1391 piece-04 0;
#X obj 252 249 soundfiler;
#X obj 252 163 bng 15 250 50 0 empty empty empty 17 7 0 10 -262144
-1 -1;
#X floatatom 370 290 20 0 0 0 - - -;
#X obj 252 185 f \$0;
#X text 323 249 TODO: how to read and playback stereo?;
#X obj 252 372 / 44100;
#X msg 184 464 1;
#X obj 184 493 /;
#X obj 184 520 phasor~;
#X obj 252 554 *~;
#X obj 365 684 osc~ 12000;
#X obj 223 462 del;
#X obj 343 425 * 1000;
#X obj 184 412 t b f b;
#X text 250 461 stop playback after phasor~ reset;
#X obj 252 527 line~;
#X msg 252 485 1 \$1;
#X msg 220 487 0;
#X obj 253 698 *~;
#X msg 422 654 0;
#X text 447 653 reset phase;
#X obj 253 728 hip~ 6000;
#X obj 287 814 osc~ 12000;
#X msg 344 789 0;
#X obj 254 838 *~;
#X obj 254 871 lop~ 5500;
#X obj 253 633 lop~ 6000;
#X text 434 682 1st ring modulator;
#X text 258 651 1st freq. filter;
#X text 260 745 2nd freq. filter;
#X text 357 814 2nd ring modulator;
#X text 319 871 3rd freq. filter;
#X obj 226 1056 +~;
#X obj 218 999 *~;
#X obj 250 1000 *~;
#X obj 323 935 sig~;
#X obj 277 935 sig~ 1;
#X obj 277 965 -~;
#X floatatom 150 547 5 0 0 0 - - -;
#X obj 580 496 osc~ 0.5;
#X obj 537 459 +~;
#X obj 542 645 r \$0-frequency;
#X obj 492 786 r \$0-frequency;
#X obj 570 448 r \$0-pmfreq;
#X obj 636 537 r \$0-pmindex;
#X obj 335 905 r \$0-xfade;
#X obj 587 569 *~ 0.0001;
#X obj 152 111 inlet;
#X obj 182 1095 outlet~;
#X obj 299 1095 outlet;
#X msg 252 211 read -resize ../assets/samples/Al_Baqara_253-262_004.wav
\$1-SAMPLE-04;
#X obj 252 290 s \$0-SAMPCOUNT-04;
#X obj 250 315 table \$0-SAMPLE-04;
#X obj 252 345 r \$0-SAMPCOUNT-04;
#X obj 313 532 r \$0-SAMPCOUNT-04;
#X obj 253 591 tabread4~ \$0-SAMPLE-04;
#X connect 0 0 2 0;
#X connect 0 0 51 0;
#X connect 1 0 3 0;
#X connect 3 0 50 0;
#X connect 5 0 12 0;
#X connect 5 0 13 0;
#X connect 6 0 7 0;
#X connect 7 0 8 0;
#X connect 7 0 38 0;
#X connect 9 0 55 0;
#X connect 10 0 18 1;
#X connect 11 0 17 0;
#X connect 11 0 49 0;
#X connect 12 0 11 1;
#X connect 12 0 16 0;
#X connect 13 0 6 0;
#X connect 13 1 7 1;
#X connect 13 2 11 0;
#X connect 15 0 40 0;
#X connect 16 0 15 0;
#X connect 16 0 19 0;
#X connect 17 0 15 0;
#X connect 18 0 21 0;
#X connect 19 0 10 1;
#X connect 19 0 23 0;
#X connect 21 0 24 0;
#X connect 21 0 33 0;
#X connect 22 0 24 1;
#X connect 23 0 22 1;
#X connect 24 0 25 0;
#X connect 25 0 34 0;
#X connect 26 0 18 0;
#X connect 32 0 48 0;
#X connect 33 0 32 0;
#X connect 34 0 32 1;
#X connect 35 0 37 1;
#X connect 35 0 33 1;
#X connect 36 0 37 0;
#X connect 37 0 34 1;
#X connect 39 0 46 0;
#X connect 40 0 9 0;
#X connect 41 0 10 0;
#X connect 42 0 22 0;
#X connect 43 0 39 0;
#X connect 44 0 46 1;
#X connect 45 0 35 0;
#X connect 46 0 40 1;
#X connect 47 0 1 0;
#X connect 50 0 0 0;
#X connect 53 0 5 0;
#X connect 54 0 9 1;
#X connect 55 0 26 0;
#X restore 1021 365 pd piece-04;
#N canvas 1280 23 1280 1391 piece-05 0;
#X obj 252 249 soundfiler;
#X obj 252 163 bng 15 250 50 0 empty empty empty 17 7 0 10 -262144
-1 -1;
#X floatatom 370 290 20 0 0 0 - - -;
#X obj 252 185 f \$0;
#X text 323 249 TODO: how to read and playback stereo?;
#X obj 252 372 / 44100;
#X msg 184 464 1;
#X obj 184 493 /;
#X obj 184 520 phasor~;
#X obj 252 554 *~;
#X obj 365 684 osc~ 12000;
#X obj 223 462 del;
#X obj 343 425 * 1000;
#X obj 184 412 t b f b;
#X text 250 461 stop playback after phasor~ reset;
#X obj 252 527 line~;
#X msg 252 485 1 \$1;
#X msg 220 487 0;
#X obj 253 698 *~;
#X msg 422 654 0;
#X text 447 653 reset phase;
#X obj 253 728 hip~ 6000;
#X obj 287 814 osc~ 12000;
#X msg 344 789 0;
#X obj 254 838 *~;
#X obj 254 871 lop~ 5500;
#X obj 253 633 lop~ 6000;
#X text 434 682 1st ring modulator;
#X text 258 651 1st freq. filter;
#X text 260 745 2nd freq. filter;
#X text 357 814 2nd ring modulator;
#X text 319 871 3rd freq. filter;
#X obj 229 1068 +~;
#X obj 218 999 *~;
#X obj 250 1000 *~;
#X obj 323 935 sig~;
#X obj 277 935 sig~ 1;
#X obj 277 965 -~;
#X floatatom 150 547 5 0 0 0 - - -;
#X obj 580 496 osc~ 0.5;
#X obj 537 459 +~;
#X obj 542 645 r \$0-frequency;
#X obj 492 786 r \$0-frequency;
#X obj 570 448 r \$0-pmfreq;
#X obj 636 537 r \$0-pmindex;
#X obj 335 905 r \$0-xfade;
#X obj 587 569 *~ 0.0001;
#X obj 152 111 inlet;
#X obj 161 1203 outlet~;
#X obj 321 1201 outlet;
#X msg 252 211 read -resize ../assets/samples/Al_Baqara_253-262_005.wav
\$1-SAMPLE-05;
#X obj 252 290 s \$0-SAMPCOUNT-05;
#X obj 250 315 table \$0-SAMPLE-05;
#X obj 252 345 r \$0-SAMPCOUNT-05;
#X obj 313 532 r \$0-SAMPCOUNT-05;
#X obj 253 591 tabread4~ \$0-SAMPLE-05;
#X connect 0 0 2 0;
#X connect 0 0 51 0;
#X connect 1 0 3 0;
#X connect 3 0 50 0;
#X connect 5 0 12 0;
#X connect 5 0 13 0;
#X connect 6 0 7 0;
#X connect 7 0 8 0;
#X connect 7 0 38 0;
#X connect 9 0 55 0;
#X connect 10 0 18 1;
#X connect 11 0 17 0;
#X connect 11 0 49 0;
#X connect 12 0 11 1;
#X connect 12 0 16 0;
#X connect 13 0 6 0;
#X connect 13 1 7 1;
#X connect 13 2 11 0;
#X connect 15 0 40 0;
#X connect 16 0 15 0;
#X connect 16 0 19 0;
#X connect 17 0 15 0;
#X connect 18 0 21 0;
#X connect 19 0 10 1;
#X connect 19 0 23 0;
#X connect 21 0 24 0;
#X connect 21 0 33 0;
#X connect 22 0 24 1;
#X connect 23 0 22 1;
#X connect 24 0 25 0;
#X connect 25 0 34 0;
#X connect 26 0 18 0;
#X connect 32 0 48 0;
#X connect 33 0 32 0;
#X connect 34 0 32 1;
#X connect 35 0 37 1;
#X connect 35 0 33 1;
#X connect 36 0 37 0;
#X connect 37 0 34 1;
#X connect 39 0 46 0;
#X connect 40 0 9 0;
#X connect 41 0 10 0;
#X connect 42 0 22 0;
#X connect 43 0 39 0;
#X connect 44 0 46 1;
#X connect 45 0 35 0;
#X connect 46 0 40 1;
#X connect 47 0 1 0;
#X connect 50 0 0 0;
#X connect 53 0 5 0;
#X connect 54 0 9 1;
#X connect 55 0 26 0;
#X restore 1021 395 pd piece-05;
#N canvas 1280 23 1280 1391 piece-06 0;
#X obj 252 249 soundfiler;
#X obj 252 163 bng 15 250 50 0 empty empty empty 17 7 0 10 -262144
-1 -1;
#X floatatom 370 290 20 0 0 0 - - -;
#X obj 252 185 f \$0;
#X text 323 249 TODO: how to read and playback stereo?;
#X obj 252 372 / 44100;
#X msg 184 464 1;
#X obj 184 493 /;
#X obj 184 520 phasor~;
#X obj 252 554 *~;
#X obj 365 684 osc~ 12000;
#X obj 223 462 del;
#X obj 343 425 * 1000;
#X obj 184 412 t b f b;
#X text 250 461 stop playback after phasor~ reset;
#X obj 252 527 line~;
#X msg 252 485 1 \$1;
#X msg 220 487 0;
#X obj 253 698 *~;
#X msg 422 654 0;
#X text 447 653 reset phase;
#X obj 253 728 hip~ 6000;
#X obj 287 814 osc~ 12000;
#X msg 344 789 0;
#X obj 254 838 *~;
#X obj 254 871 lop~ 5500;
#X obj 253 633 lop~ 6000;
#X text 434 682 1st ring modulator;
#X text 258 651 1st freq. filter;
#X text 260 745 2nd freq. filter;
#X text 357 814 2nd ring modulator;
#X text 319 871 3rd freq. filter;
#X obj 229 1068 +~;
#X obj 218 999 *~;
#X obj 250 1000 *~;
#X obj 323 935 sig~;
#X obj 277 935 sig~ 1;
#X obj 277 965 -~;
#X floatatom 150 547 5 0 0 0 - - -;
#X obj 580 496 osc~ 0.5;
#X obj 537 459 +~;
#X obj 542 645 r \$0-frequency;
#X obj 492 786 r \$0-frequency;
#X obj 570 448 r \$0-pmfreq;
#X obj 636 537 r \$0-pmindex;
#X obj 335 905 r \$0-xfade;
#X obj 587 569 *~ 0.0001;
#X obj 152 111 inlet;
#X obj 161 1203 outlet~;
#X obj 302 1197 outlet;
#X msg 252 211 read -resize ../assets/samples/Al_Baqara_253-262_006.wav
\$1-SAMPLE-06;
#X obj 252 290 s \$0-SAMPCOUNT-06;
#X obj 250 315 table \$0-SAMPLE-06;
#X obj 252 345 r \$0-SAMPCOUNT-06;
#X obj 313 532 r \$0-SAMPCOUNT-06;
#X obj 253 591 tabread4~ \$0-SAMPLE-06;
#X connect 0 0 2 0;
#X connect 0 0 51 0;
#X connect 1 0 3 0;
#X connect 3 0 50 0;
#X connect 5 0 12 0;
#X connect 5 0 13 0;
#X connect 6 0 7 0;
#X connect 7 0 8 0;
#X connect 7 0 38 0;
#X connect 9 0 55 0;
#X connect 10 0 18 1;
#X connect 11 0 17 0;
#X connect 11 0 49 0;
#X connect 12 0 11 1;
#X connect 12 0 16 0;
#X connect 13 0 6 0;
#X connect 13 1 7 1;
#X connect 13 2 11 0;
#X connect 15 0 40 0;
#X connect 16 0 15 0;
#X connect 16 0 19 0;
#X connect 17 0 15 0;
#X connect 18 0 21 0;
#X connect 19 0 10 1;
#X connect 19 0 23 0;
#X connect 21 0 24 0;
#X connect 21 0 33 0;
#X connect 22 0 24 1;
#X connect 23 0 22 1;
#X connect 24 0 25 0;
#X connect 25 0 34 0;
#X connect 26 0 18 0;
#X connect 32 0 48 0;
#X connect 33 0 32 0;
#X connect 34 0 32 1;
#X connect 35 0 37 1;
#X connect 35 0 33 1;
#X connect 36 0 37 0;
#X connect 37 0 34 1;
#X connect 39 0 46 0;
#X connect 40 0 9 0;
#X connect 41 0 10 0;
#X connect 42 0 22 0;
#X connect 43 0 39 0;
#X connect 44 0 46 1;
#X connect 45 0 35 0;
#X connect 46 0 40 1;
#X connect 47 0 1 0;
#X connect 50 0 0 0;
#X connect 53 0 5 0;
#X connect 54 0 9 1;
#X connect 55 0 26 0;
#X restore 1021 425 pd piece-06;
#N canvas 1280 23 1280 1391 piece-07 0;
#X obj 252 249 soundfiler;
#X obj 252 163 bng 15 250 50 0 empty empty empty 17 7 0 10 -262144
-1 -1;
#X floatatom 370 290 20 0 0 0 - - -;
#X obj 252 185 f \$0;
#X text 323 249 TODO: how to read and playback stereo?;
#X obj 252 372 / 44100;
#X msg 184 464 1;
#X obj 184 493 /;
#X obj 184 520 phasor~;
#X obj 252 554 *~;
#X obj 365 684 osc~ 12000;
#X obj 223 462 del;
#X obj 343 425 * 1000;
#X obj 184 412 t b f b;
#X text 250 461 stop playback after phasor~ reset;
#X obj 252 527 line~;
#X msg 252 485 1 \$1;
#X msg 220 487 0;
#X obj 253 698 *~;
#X msg 422 654 0;
#X text 447 653 reset phase;
#X obj 253 728 hip~ 6000;
#X obj 287 814 osc~ 12000;
#X msg 344 789 0;
#X obj 254 838 *~;
#X obj 254 871 lop~ 5500;
#X obj 253 633 lop~ 6000;
#X text 434 682 1st ring modulator;
#X text 258 651 1st freq. filter;
#X text 260 745 2nd freq. filter;
#X text 357 814 2nd ring modulator;
#X text 319 871 3rd freq. filter;
#X obj 229 1068 +~;
#X obj 218 999 *~;
#X obj 250 1000 *~;
#X obj 323 935 sig~;
#X obj 277 935 sig~ 1;
#X obj 277 965 -~;
#X floatatom 150 547 5 0 0 0 - - -;
#X obj 580 496 osc~ 0.5;
#X obj 537 459 +~;
#X obj 542 645 r \$0-frequency;
#X obj 492 786 r \$0-frequency;
#X obj 570 448 r \$0-pmfreq;
#X obj 636 537 r \$0-pmindex;
#X obj 335 905 r \$0-xfade;
#X obj 587 569 *~ 0.0001;
#X obj 152 111 inlet;
#X obj 161 1203 outlet~;
#X obj 248 1214 outlet;
#X msg 252 211 read -resize ../assets/samples/Al_Baqara_253-262_007.wav
\$1-SAMPLE-07;
#X obj 252 290 s \$0-SAMPCOUNT-07;
#X obj 250 315 table \$0-SAMPLE-07;
#X obj 252 345 r \$0-SAMPCOUNT-07;
#X obj 313 532 r \$0-SAMPCOUNT-07;
#X obj 253 591 tabread4~ \$0-SAMPLE-07;
#X connect 0 0 2 0;
#X connect 0 0 51 0;
#X connect 1 0 3 0;
#X connect 3 0 50 0;
#X connect 5 0 12 0;
#X connect 5 0 13 0;
#X connect 6 0 7 0;
#X connect 7 0 8 0;
#X connect 7 0 38 0;
#X connect 9 0 55 0;
#X connect 10 0 18 1;
#X connect 11 0 17 0;
#X connect 11 0 49 0;
#X connect 12 0 11 1;
#X connect 12 0 16 0;
#X connect 13 0 6 0;
#X connect 13 1 7 1;
#X connect 13 2 11 0;
#X connect 15 0 40 0;
#X connect 16 0 15 0;
#X connect 16 0 19 0;
#X connect 17 0 15 0;
#X connect 18 0 21 0;
#X connect 19 0 10 1;
#X connect 19 0 23 0;
#X connect 21 0 24 0;
#X connect 21 0 33 0;
#X connect 22 0 24 1;
#X connect 23 0 22 1;
#X connect 24 0 25 0;
#X connect 25 0 34 0;
#X connect 26 0 18 0;
#X connect 32 0 48 0;
#X connect 33 0 32 0;
#X connect 34 0 32 1;
#X connect 35 0 37 1;
#X connect 35 0 33 1;
#X connect 36 0 37 0;
#X connect 37 0 34 1;
#X connect 39 0 46 0;
#X connect 40 0 9 0;
#X connect 41 0 10 0;
#X connect 42 0 22 0;
#X connect 43 0 39 0;
#X connect 44 0 46 1;
#X connect 45 0 35 0;
#X connect 46 0 40 1;
#X connect 47 0 1 0;
#X connect 50 0 0 0;
#X connect 53 0 5 0;
#X connect 54 0 9 1;
#X connect 55 0 26 0;
#X restore 1021 455 pd piece-07;
#N canvas 1280 23 1280 1391 piece-08 0;
#X obj 252 249 soundfiler;
#X obj 252 163 bng 15 250 50 0 empty empty empty 17 7 0 10 -262144
-1 -1;
#X floatatom 370 290 20 0 0 0 - - -;
#X obj 252 185 f \$0;
#X text 323 249 TODO: how to read and playback stereo?;
#X obj 252 372 / 44100;
#X msg 184 464 1;
#X obj 184 493 /;
#X obj 184 520 phasor~;
#X obj 252 554 *~;
#X obj 365 684 osc~ 12000;
#X obj 223 462 del;
#X obj 343 425 * 1000;
#X obj 184 412 t b f b;
#X text 250 461 stop playback after phasor~ reset;
#X obj 252 527 line~;
#X msg 252 485 1 \$1;
#X msg 220 487 0;
#X obj 253 698 *~;
#X msg 422 654 0;
#X text 447 653 reset phase;
#X obj 253 728 hip~ 6000;
#X obj 287 814 osc~ 12000;
#X msg 344 789 0;
#X obj 254 838 *~;
#X obj 254 871 lop~ 5500;
#X obj 253 633 lop~ 6000;
#X text 434 682 1st ring modulator;
#X text 258 651 1st freq. filter;
#X text 260 745 2nd freq. filter;
#X text 357 814 2nd ring modulator;
#X text 319 871 3rd freq. filter;
#X obj 220 1049 +~;
#X obj 218 999 *~;
#X obj 250 1000 *~;
#X obj 323 935 sig~;
#X obj 277 935 sig~ 1;
#X obj 277 965 -~;
#X floatatom 150 547 5 0 0 0 - - -;
#X obj 580 496 osc~ 0.5;
#X obj 537 459 +~;
#X obj 542 645 r \$0-frequency;
#X obj 492 786 r \$0-frequency;
#X obj 570 448 r \$0-pmfreq;
#X obj 636 537 r \$0-pmindex;
#X obj 335 905 r \$0-xfade;
#X obj 587 569 *~ 0.0001;
#X obj 152 111 inlet;
#X obj 166 1126 outlet~;
#X obj 282 1129 outlet;
#X msg 252 211 read -resize ../assets/samples/Al_Baqara_253-262_008.wav
\$1-SAMPLE-08;
#X obj 252 290 s \$0-SAMPCOUNT-08;
#X obj 250 315 table \$0-SAMPLE-08;
#X obj 252 345 r \$0-SAMPCOUNT-08;
#X obj 313 532 r \$0-SAMPCOUNT-08;
#X obj 253 591 tabread4~ \$0-SAMPLE-08;
#X connect 0 0 2 0;
#X connect 0 0 51 0;
#X connect 1 0 3 0;
#X connect 3 0 50 0;
#X connect 5 0 12 0;
#X connect 5 0 13 0;
#X connect 6 0 7 0;
#X connect 7 0 8 0;
#X connect 7 0 38 0;
#X connect 9 0 55 0;
#X connect 10 0 18 1;
#X connect 11 0 17 0;
#X connect 11 0 49 0;
#X connect 12 0 11 1;
#X connect 12 0 16 0;
#X connect 13 0 6 0;
#X connect 13 1 7 1;
#X connect 13 2 11 0;
#X connect 15 0 40 0;
#X connect 16 0 15 0;
#X connect 16 0 19 0;
#X connect 17 0 15 0;
#X connect 18 0 21 0;
#X connect 19 0 10 1;
#X connect 19 0 23 0;
#X connect 21 0 24 0;
#X connect 21 0 33 0;
#X connect 22 0 24 1;
#X connect 23 0 22 1;
#X connect 24 0 25 0;
#X connect 25 0 34 0;
#X connect 26 0 18 0;
#X connect 32 0 48 0;
#X connect 33 0 32 0;
#X connect 34 0 32 1;
#X connect 35 0 37 1;
#X connect 35 0 33 1;
#X connect 36 0 37 0;
#X connect 37 0 34 1;
#X connect 39 0 46 0;
#X connect 40 0 9 0;
#X connect 41 0 10 0;
#X connect 42 0 22 0;
#X connect 43 0 39 0;
#X connect 44 0 46 1;
#X connect 45 0 35 0;
#X connect 46 0 40 1;
#X connect 47 0 1 0;
#X connect 50 0 0 0;
#X connect 53 0 5 0;
#X connect 54 0 9 1;
#X connect 55 0 26 0;
#X restore 1021 485 pd piece-08;
#N canvas 1280 23 1280 1391 piece-09 0;
#X obj 252 249 soundfiler;
#X obj 252 163 bng 15 250 50 0 empty empty empty 17 7 0 10 -262144
-1 -1;
#X floatatom 370 290 20 0 0 0 - - -;
#X obj 252 185 f \$0;
#X text 323 249 TODO: how to read and playback stereo?;
#X obj 252 372 / 44100;
#X msg 184 464 1;
#X obj 184 493 /;
#X obj 184 520 phasor~;
#X obj 252 554 *~;
#X obj 365 684 osc~ 12000;
#X obj 223 462 del;
#X obj 343 425 * 1000;
#X obj 184 412 t b f b;
#X text 250 461 stop playback after phasor~ reset;
#X obj 252 527 line~;
#X msg 252 485 1 \$1;
#X msg 220 487 0;
#X obj 253 698 *~;
#X msg 422 654 0;
#X text 447 653 reset phase;
#X obj 253 728 hip~ 6000;
#X obj 287 814 osc~ 12000;
#X msg 344 789 0;
#X obj 254 838 *~;
#X obj 254 871 lop~ 5500;
#X obj 253 633 lop~ 6000;
#X text 434 682 1st ring modulator;
#X text 258 651 1st freq. filter;
#X text 260 745 2nd freq. filter;
#X text 357 814 2nd ring modulator;
#X text 319 871 3rd freq. filter;
#X obj 223 1037 +~;
#X obj 218 999 *~;
#X obj 250 1000 *~;
#X obj 323 935 sig~;
#X obj 277 935 sig~ 1;
#X obj 277 965 -~;
#X floatatom 150 547 5 0 0 0 - - -;
#X obj 580 496 osc~ 0.5;
#X obj 537 459 +~;
#X obj 542 645 r \$0-frequency;
#X obj 492 786 r \$0-frequency;
#X obj 570 448 r \$0-pmfreq;
#X obj 636 537 r \$0-pmindex;
#X obj 335 905 r \$0-xfade;
#X obj 587 569 *~ 0.0001;
#X obj 152 111 inlet;
#X obj 161 1203 outlet~;
#X obj 247 1204 outlet;
#X msg 252 211 read -resize ../assets/samples/Al_Baqara_253-262_009.wav
\$1-SAMPLE-09;
#X obj 252 290 s \$0-SAMPCOUNT-09;
#X obj 250 315 table \$0-SAMPLE-09;
#X obj 252 345 r \$0-SAMPCOUNT-09;
#X obj 313 532 r \$0-SAMPCOUNT-09;
#X obj 253 591 tabread4~ \$0-SAMPLE-09;
#X connect 0 0 2 0;
#X connect 0 0 51 0;
#X connect 1 0 3 0;
#X connect 3 0 50 0;
#X connect 5 0 12 0;
#X connect 5 0 13 0;
#X connect 6 0 7 0;
#X connect 7 0 8 0;
#X connect 7 0 38 0;
#X connect 9 0 55 0;
#X connect 10 0 18 1;
#X connect 11 0 17 0;
#X connect 11 0 49 0;
#X connect 12 0 11 1;
#X connect 12 0 16 0;
#X connect 13 0 6 0;
#X connect 13 1 7 1;
#X connect 13 2 11 0;
#X connect 15 0 40 0;
#X connect 16 0 15 0;
#X connect 16 0 19 0;
#X connect 17 0 15 0;
#X connect 18 0 21 0;
#X connect 19 0 10 1;
#X connect 19 0 23 0;
#X connect 21 0 24 0;
#X connect 21 0 33 0;
#X connect 22 0 24 1;
#X connect 23 0 22 1;
#X connect 24 0 25 0;
#X connect 25 0 34 0;
#X connect 26 0 18 0;
#X connect 32 0 48 0;
#X connect 33 0 32 0;
#X connect 34 0 32 1;
#X connect 35 0 37 1;
#X connect 35 0 33 1;
#X connect 36 0 37 0;
#X connect 37 0 34 1;
#X connect 39 0 46 0;
#X connect 40 0 9 0;
#X connect 41 0 10 0;
#X connect 42 0 22 0;
#X connect 43 0 39 0;
#X connect 44 0 46 1;
#X connect 45 0 35 0;
#X connect 46 0 40 1;
#X connect 47 0 1 0;
#X connect 50 0 0 0;
#X connect 53 0 5 0;
#X connect 54 0 9 1;
#X connect 55 0 26 0;
#X restore 1021 515 pd piece-09;
#N canvas 1280 23 1280 1391 piece-11 0;
#X obj 252 249 soundfiler;
#X obj 252 163 bng 15 250 50 0 empty empty empty 17 7 0 10 -262144
-1 -1;
#X floatatom 370 290 20 0 0 0 - - -;
#X obj 252 185 f \$0;
#X text 323 249 TODO: how to read and playback stereo?;
#X obj 252 372 / 44100;
#X msg 184 464 1;
#X obj 184 493 /;
#X obj 184 520 phasor~;
#X obj 252 554 *~;
#X obj 365 684 osc~ 12000;
#X obj 223 462 del;
#X obj 343 425 * 1000;
#X obj 184 412 t b f b;
#X text 250 461 stop playback after phasor~ reset;
#X obj 252 527 line~;
#X msg 252 485 1 \$1;
#X msg 220 487 0;
#X obj 253 698 *~;
#X msg 422 654 0;
#X text 447 653 reset phase;
#X obj 253 728 hip~ 6000;
#X obj 287 814 osc~ 12000;
#X msg 344 789 0;
#X obj 254 838 *~;
#X obj 254 871 lop~ 5500;
#X obj 253 633 lop~ 6000;
#X text 434 682 1st ring modulator;
#X text 258 651 1st freq. filter;
#X text 260 745 2nd freq. filter;
#X text 357 814 2nd ring modulator;
#X text 319 871 3rd freq. filter;
#X obj 210 1043 +~;
#X obj 218 999 *~;
#X obj 250 1000 *~;
#X obj 323 935 sig~;
#X obj 277 935 sig~ 1;
#X obj 277 965 -~;
#X floatatom 150 547 5 0 0 0 - - -;
#X obj 580 496 osc~ 0.5;
#X obj 537 459 +~;
#X obj 542 645 r \$0-frequency;
#X obj 492 786 r \$0-frequency;
#X obj 570 448 r \$0-pmfreq;
#X obj 636 537 r \$0-pmindex;
#X obj 335 905 r \$0-xfade;
#X obj 587 569 *~ 0.0001;
#X obj 152 111 inlet;
#X obj 161 1203 outlet~;
#X obj 276 1187 outlet;
#X msg 252 211 read -resize ../assets/samples/Al_Baqara_253-262_011.wav
\$1-SAMPLE-11;
#X obj 252 290 s \$0-SAMPCOUNT-11;
#X obj 250 315 table \$0-SAMPLE-11;
#X obj 252 344 r \$0-SAMPCOUNT-11;
#X obj 313 532 r \$0-SAMPCOUNT-11;
#X obj 253 591 tabread4~ \$0-SAMPLE-11;
#X connect 0 0 2 0;
#X connect 0 0 51 0;
#X connect 1 0 3 0;
#X connect 3 0 50 0;
#X connect 5 0 12 0;
#X connect 5 0 13 0;
#X connect 6 0 7 0;
#X connect 7 0 8 0;
#X connect 7 0 38 0;
#X connect 9 0 55 0;
#X connect 10 0 18 1;
#X connect 11 0 17 0;
#X connect 11 0 49 0;
#X connect 12 0 11 1;
#X connect 12 0 16 0;
#X connect 13 0 6 0;
#X connect 13 1 7 1;
#X connect 13 2 11 0;
#X connect 15 0 40 0;
#X connect 16 0 15 0;
#X connect 16 0 19 0;
#X connect 17 0 15 0;
#X connect 18 0 21 0;
#X connect 19 0 10 1;
#X connect 19 0 23 0;
#X connect 21 0 24 0;
#X connect 21 0 33 0;
#X connect 22 0 24 1;
#X connect 23 0 22 1;
#X connect 24 0 25 0;
#X connect 25 0 34 0;
#X connect 26 0 18 0;
#X connect 32 0 48 0;
#X connect 33 0 32 0;
#X connect 34 0 32 1;
#X connect 35 0 37 1;
#X connect 35 0 33 1;
#X connect 36 0 37 0;
#X connect 37 0 34 1;
#X connect 39 0 46 0;
#X connect 40 0 9 0;
#X connect 41 0 10 0;
#X connect 42 0 22 0;
#X connect 43 0 39 0;
#X connect 44 0 46 1;
#X connect 45 0 35 0;
#X connect 46 0 40 1;
#X connect 47 0 1 0;
#X connect 50 0 0 0;
#X connect 53 0 5 0;
#X connect 54 0 9 1;
#X connect 55 0 26 0;
#X restore 1021 575 pd piece-11;
#N canvas 1280 23 1280 1391 piece-12 0;
#X obj 252 249 soundfiler;
#X obj 252 163 bng 15 250 50 0 empty empty empty 17 7 0 10 -262144
-1 -1;
#X floatatom 370 290 20 0 0 0 - - -;
#X obj 252 185 f \$0;
#X text 323 249 TODO: how to read and playback stereo?;
#X obj 252 372 / 44100;
#X msg 184 464 1;
#X obj 184 493 /;
#X obj 184 520 phasor~;
#X obj 252 554 *~;
#X obj 365 684 osc~ 12000;
#X obj 223 462 del;
#X obj 343 425 * 1000;
#X obj 184 412 t b f b;
#X text 250 461 stop playback after phasor~ reset;
#X obj 252 527 line~;
#X msg 252 485 1 \$1;
#X msg 220 487 0;
#X obj 253 698 *~;
#X msg 422 654 0;
#X text 447 653 reset phase;
#X obj 253 728 hip~ 6000;
#X obj 287 814 osc~ 12000;
#X msg 344 789 0;
#X obj 254 838 *~;
#X obj 254 871 lop~ 5500;
#X obj 253 633 lop~ 6000;
#X text 434 682 1st ring modulator;
#X text 258 651 1st freq. filter;
#X text 260 745 2nd freq. filter;
#X text 357 814 2nd ring modulator;
#X text 319 871 3rd freq. filter;
#X obj 224 1048 +~;
#X obj 218 999 *~;
#X obj 250 1000 *~;
#X obj 323 935 sig~;
#X obj 277 935 sig~ 1;
#X obj 277 965 -~;
#X floatatom 150 547 5 0 0 0 - - -;
#X obj 580 496 osc~ 0.5;
#X obj 537 459 +~;
#X obj 542 645 r \$0-frequency;
#X obj 492 786 r \$0-frequency;
#X obj 570 448 r \$0-pmfreq;
#X obj 636 537 r \$0-pmindex;
#X obj 335 905 r \$0-xfade;
#X obj 587 569 *~ 0.0001;
#X obj 152 111 inlet;
#X obj 161 1203 outlet~;
#X obj 259 1197 outlet;
#X msg 252 211 read -resize ../assets/samples/Al_Baqara_253-262_012.wav
\$1-SAMPLE-12;
#X obj 252 290 s \$0-SAMPCOUNT-12;
#X obj 250 315 table \$0-SAMPLE-12;
#X obj 252 344 r \$0-SAMPCOUNT-12;
#X obj 313 532 r \$0-SAMPCOUNT-12;
#X obj 253 591 tabread4~ \$0-SAMPLE-12;
#X connect 0 0 2 0;
#X connect 0 0 51 0;
#X connect 1 0 3 0;
#X connect 3 0 50 0;
#X connect 5 0 12 0;
#X connect 5 0 13 0;
#X connect 6 0 7 0;
#X connect 7 0 8 0;
#X connect 7 0 38 0;
#X connect 9 0 55 0;
#X connect 10 0 18 1;
#X connect 11 0 17 0;
#X connect 11 0 49 0;
#X connect 12 0 11 1;
#X connect 12 0 16 0;
#X connect 13 0 6 0;
#X connect 13 1 7 1;
#X connect 13 2 11 0;
#X connect 15 0 40 0;
#X connect 16 0 15 0;
#X connect 16 0 19 0;
#X connect 17 0 15 0;
#X connect 18 0 21 0;
#X connect 19 0 10 1;
#X connect 19 0 23 0;
#X connect 21 0 24 0;
#X connect 21 0 33 0;
#X connect 22 0 24 1;
#X connect 23 0 22 1;
#X connect 24 0 25 0;
#X connect 25 0 34 0;
#X connect 26 0 18 0;
#X connect 32 0 48 0;
#X connect 33 0 32 0;
#X connect 34 0 32 1;
#X connect 35 0 37 1;
#X connect 35 0 33 1;
#X connect 36 0 37 0;
#X connect 37 0 34 1;
#X connect 39 0 46 0;
#X connect 40 0 9 0;
#X connect 41 0 10 0;
#X connect 42 0 22 0;
#X connect 43 0 39 0;
#X connect 44 0 46 1;
#X connect 45 0 35 0;
#X connect 46 0 40 1;
#X connect 47 0 1 0;
#X connect 50 0 0 0;
#X connect 53 0 5 0;
#X connect 54 0 9 1;
#X connect 55 0 26 0;
#X restore 1021 605 pd piece-12;
#N canvas 1280 23 1280 1391 piece-13 0;
#X obj 252 249 soundfiler;
#X obj 252 163 bng 15 250 50 0 empty empty empty 17 7 0 10 -262144
-1 -1;
#X floatatom 370 290 20 0 0 0 - - -;
#X obj 252 185 f \$0;
#X text 323 249 TODO: how to read and playback stereo?;
#X obj 252 372 / 44100;
#X msg 184 464 1;
#X obj 184 493 /;
#X obj 184 520 phasor~;
#X obj 252 554 *~;
#X obj 365 684 osc~ 12000;
#X obj 223 462 del;
#X obj 343 425 * 1000;
#X obj 184 412 t b f b;
#X text 250 461 stop playback after phasor~ reset;
#X obj 252 527 line~;
#X msg 252 485 1 \$1;
#X msg 220 487 0;
#X obj 253 698 *~;
#X msg 422 654 0;
#X text 447 653 reset phase;
#X obj 253 728 hip~ 6000;
#X obj 287 814 osc~ 12000;
#X msg 344 789 0;
#X obj 254 838 *~;
#X obj 254 871 lop~ 5500;
#X obj 253 633 lop~ 6000;
#X text 434 682 1st ring modulator;
#X text 258 651 1st freq. filter;
#X text 260 745 2nd freq. filter;
#X text 357 814 2nd ring modulator;
#X text 319 871 3rd freq. filter;
#X obj 223 1044 +~;
#X obj 218 999 *~;
#X obj 250 1000 *~;
#X obj 323 935 sig~;
#X obj 277 935 sig~ 1;
#X obj 277 965 -~;
#X floatatom 150 547 5 0 0 0 - - -;
#X obj 580 496 osc~ 0.5;
#X obj 537 459 +~;
#X obj 542 645 r \$0-frequency;
#X obj 492 786 r \$0-frequency;
#X obj 570 448 r \$0-pmfreq;
#X obj 636 537 r \$0-pmindex;
#X obj 335 905 r \$0-xfade;
#X obj 587 569 *~ 0.0001;
#X obj 152 111 inlet;
#X obj 158 1143 outlet~;
#X obj 237 1138 outlet;
#X msg 252 211 read -resize ../assets/samples/Al_Baqara_253-262_013.wav
\$1-SAMPLE-13;
#X obj 252 290 s \$0-SAMPCOUNT-13;
#X obj 250 315 table \$0-SAMPLE-13;
#X obj 252 344 r \$0-SAMPCOUNT-13;
#X obj 313 532 r \$0-SAMPCOUNT-13;
#X obj 253 591 tabread4~ \$0-SAMPLE-13;
#X connect 0 0 2 0;
#X connect 0 0 51 0;
#X connect 1 0 3 0;
#X connect 3 0 50 0;
#X connect 5 0 12 0;
#X connect 5 0 13 0;
#X connect 6 0 7 0;
#X connect 7 0 8 0;
#X connect 7 0 38 0;
#X connect 9 0 55 0;
#X connect 10 0 18 1;
#X connect 11 0 17 0;
#X connect 11 0 49 0;
#X connect 12 0 11 1;
#X connect 12 0 16 0;
#X connect 13 0 6 0;
#X connect 13 1 7 1;
#X connect 13 2 11 0;
#X connect 15 0 40 0;
#X connect 16 0 15 0;
#X connect 16 0 19 0;
#X connect 17 0 15 0;
#X connect 18 0 21 0;
#X connect 19 0 10 1;
#X connect 19 0 23 0;
#X connect 21 0 24 0;
#X connect 21 0 33 0;
#X connect 22 0 24 1;
#X connect 23 0 22 1;
#X connect 24 0 25 0;
#X connect 25 0 34 0;
#X connect 26 0 18 0;
#X connect 32 0 48 0;
#X connect 33 0 32 0;
#X connect 34 0 32 1;
#X connect 35 0 37 1;
#X connect 35 0 33 1;
#X connect 36 0 37 0;
#X connect 37 0 34 1;
#X connect 39 0 46 0;
#X connect 40 0 9 0;
#X connect 41 0 10 0;
#X connect 42 0 22 0;
#X connect 43 0 39 0;
#X connect 44 0 46 1;
#X connect 45 0 35 0;
#X connect 46 0 40 1;
#X connect 47 0 1 0;
#X connect 50 0 0 0;
#X connect 53 0 5 0;
#X connect 54 0 9 1;
#X connect 55 0 26 0;
#X restore 1021 635 pd piece-13;
#N canvas 1280 23 1280 1391 piece-14 0;
#X obj 252 249 soundfiler;
#X obj 252 163 bng 15 250 50 0 empty empty empty 17 7 0 10 -262144
-1 -1;
#X floatatom 370 290 20 0 0 0 - - -;
#X obj 252 185 f \$0;
#X text 323 249 TODO: how to read and playback stereo?;
#X obj 252 372 / 44100;
#X msg 184 464 1;
#X obj 184 493 /;
#X obj 184 520 phasor~;
#X obj 252 554 *~;
#X obj 365 684 osc~ 12000;
#X obj 223 462 del;
#X obj 343 425 * 1000;
#X obj 184 412 t b f b;
#X text 250 461 stop playback after phasor~ reset;
#X obj 252 527 line~;
#X msg 252 485 1 \$1;
#X msg 220 487 0;
#X obj 253 698 *~;
#X msg 422 654 0;
#X text 447 653 reset phase;
#X obj 253 728 hip~ 6000;
#X obj 287 814 osc~ 12000;
#X msg 344 789 0;
#X obj 254 838 *~;
#X obj 254 871 lop~ 5500;
#X obj 253 633 lop~ 6000;
#X text 434 682 1st ring modulator;
#X text 258 651 1st freq. filter;
#X text 260 745 2nd freq. filter;
#X text 357 814 2nd ring modulator;
#X text 319 871 3rd freq. filter;
#X obj 219 1049 +~;
#X obj 218 999 *~;
#X obj 250 1000 *~;
#X obj 323 935 sig~;
#X obj 277 935 sig~ 1;
#X obj 277 965 -~;
#X floatatom 150 547 5 0 0 0 - - -;
#X obj 580 496 osc~ 0.5;
#X obj 537 459 +~;
#X obj 542 645 r \$0-frequency;
#X obj 492 786 r \$0-frequency;
#X obj 570 448 r \$0-pmfreq;
#X obj 636 537 r \$0-pmindex;
#X obj 335 905 r \$0-xfade;
#X obj 587 569 *~ 0.0001;
#X obj 152 111 inlet;
#X obj 161 1203 outlet~;
#X obj 260 1194 outlet;
#X msg 252 211 read -resize ../assets/samples/Al_Baqara_253-262_014.wav
\$1-SAMPLE-14;
#X obj 252 290 s \$0-SAMPCOUNT-14;
#X obj 250 315 table \$0-SAMPLE-14;
#X obj 252 344 r \$0-SAMPCOUNT-14;
#X obj 313 532 r \$0-SAMPCOUNT-14;
#X obj 253 591 tabread4~ \$0-SAMPLE-14;
#X connect 0 0 2 0;
#X connect 0 0 51 0;
#X connect 1 0 3 0;
#X connect 3 0 50 0;
#X connect 5 0 12 0;
#X connect 5 0 13 0;
#X connect 6 0 7 0;
#X connect 7 0 8 0;
#X connect 7 0 38 0;
#X connect 9 0 55 0;
#X connect 10 0 18 1;
#X connect 11 0 17 0;
#X connect 11 0 49 0;
#X connect 12 0 11 1;
#X connect 12 0 16 0;
#X connect 13 0 6 0;
#X connect 13 1 7 1;
#X connect 13 2 11 0;
#X connect 15 0 40 0;
#X connect 16 0 15 0;
#X connect 16 0 19 0;
#X connect 17 0 15 0;
#X connect 18 0 21 0;
#X connect 19 0 10 1;
#X connect 19 0 23 0;
#X connect 21 0 24 0;
#X connect 21 0 33 0;
#X connect 22 0 24 1;
#X connect 23 0 22 1;
#X connect 24 0 25 0;
#X connect 25 0 34 0;
#X connect 26 0 18 0;
#X connect 32 0 48 0;
#X connect 33 0 32 0;
#X connect 34 0 32 1;
#X connect 35 0 37 1;
#X connect 35 0 33 1;
#X connect 36 0 37 0;
#X connect 37 0 34 1;
#X connect 39 0 46 0;
#X connect 40 0 9 0;
#X connect 41 0 10 0;
#X connect 42 0 22 0;
#X connect 43 0 39 0;
#X connect 44 0 46 1;
#X connect 45 0 35 0;
#X connect 46 0 40 1;
#X connect 47 0 1 0;
#X connect 50 0 0 0;
#X connect 53 0 5 0;
#X connect 54 0 9 1;
#X connect 55 0 26 0;
#X restore 1021 665 pd piece-14;
#N canvas 1280 23 1280 1391 piece-15 0;
#X obj 252 249 soundfiler;
#X obj 252 163 bng 15 250 50 0 empty empty empty 17 7 0 10 -262144
-1 -1;
#X floatatom 370 290 20 0 0 0 - - -;
#X obj 252 185 f \$0;
#X text 323 249 TODO: how to read and playback stereo?;
#X obj 252 372 / 44100;
#X msg 184 464 1;
#X obj 184 493 /;
#X obj 184 520 phasor~;
#X obj 252 554 *~;
#X obj 365 684 osc~ 12000;
#X obj 223 462 del;
#X obj 343 425 * 1000;
#X obj 184 412 t b f b;
#X text 250 461 stop playback after phasor~ reset;
#X obj 252 527 line~;
#X msg 252 485 1 \$1;
#X msg 220 487 0;
#X obj 253 698 *~;
#X msg 422 654 0;
#X text 447 653 reset phase;
#X obj 253 728 hip~ 6000;
#X obj 287 814 osc~ 12000;
#X msg 344 789 0;
#X obj 254 838 *~;
#X obj 254 871 lop~ 5500;
#X obj 253 633 lop~ 6000;
#X text 434 682 1st ring modulator;
#X text 258 651 1st freq. filter;
#X text 260 745 2nd freq. filter;
#X text 357 814 2nd ring modulator;
#X text 319 871 3rd freq. filter;
#X obj 223 1050 +~;
#X obj 218 999 *~;
#X obj 250 1000 *~;
#X obj 323 935 sig~;
#X obj 277 935 sig~ 1;
#X obj 277 965 -~;
#X floatatom 150 547 5 0 0 0 - - -;
#X obj 580 496 osc~ 0.5;
#X obj 537 459 +~;
#X obj 542 645 r \$0-frequency;
#X obj 492 786 r \$0-frequency;
#X obj 570 448 r \$0-pmfreq;
#X obj 636 537 r \$0-pmindex;
#X obj 335 905 r \$0-xfade;
#X obj 587 569 *~ 0.0001;
#X obj 152 111 inlet;
#X obj 161 1203 outlet~;
#X obj 256 1213 outlet;
#X msg 252 211 read -resize ../assets/samples/Al_Baqara_253-262_015.wav
\$1-SAMPLE-15;
#X obj 252 290 s \$0-SAMPCOUNT-15;
#X obj 250 315 table \$0-SAMPLE-15;
#X obj 252 344 r \$0-SAMPCOUNT-15;
#X obj 313 532 r \$0-SAMPCOUNT-15;
#X obj 253 591 tabread4~ \$0-SAMPLE-15;
#X connect 0 0 2 0;
#X connect 0 0 51 0;
#X connect 1 0 3 0;
#X connect 3 0 50 0;
#X connect 5 0 12 0;
#X connect 5 0 13 0;
#X connect 6 0 7 0;
#X connect 7 0 8 0;
#X connect 7 0 38 0;
#X connect 8 0 40 0;
#X connect 9 0 55 0;
#X connect 10 0 18 1;
#X connect 11 0 17 0;
#X connect 11 0 49 0;
#X connect 12 0 11 1;
#X connect 12 0 16 0;
#X connect 13 0 6 0;
#X connect 13 1 7 1;
#X connect 13 2 11 0;
#X connect 16 0 15 0;
#X connect 16 0 19 0;
#X connect 17 0 15 0;
#X connect 18 0 21 0;
#X connect 19 0 10 1;
#X connect 19 0 23 0;
#X connect 21 0 24 0;
#X connect 21 0 33 0;
#X connect 22 0 24 1;
#X connect 23 0 22 1;
#X connect 24 0 25 0;
#X connect 25 0 34 0;
#X connect 26 0 18 0;
#X connect 32 0 48 0;
#X connect 33 0 32 0;
#X connect 34 0 32 1;
#X connect 35 0 37 1;
#X connect 35 0 33 1;
#X connect 36 0 37 0;
#X connect 37 0 34 1;
#X connect 39 0 46 0;
#X connect 40 0 9 0;
#X connect 41 0 10 0;
#X connect 42 0 22 0;
#X connect 43 0 39 0;
#X connect 44 0 46 1;
#X connect 45 0 35 0;
#X connect 46 0 40 1;
#X connect 47 0 1 0;
#X connect 50 0 0 0;
#X connect 53 0 5 0;
#X connect 54 0 9 1;
#X connect 55 0 26 0;
#X restore 1021 695 pd piece-15;
#N canvas 1280 23 1280 1391 piece-10 0;
#X obj 252 249 soundfiler;
#X obj 252 163 bng 15 250 50 0 empty empty empty 17 7 0 10 -262144
-1 -1;
#X floatatom 370 290 20 0 0 0 - - -;
#X obj 252 185 f \$0;
#X text 323 249 TODO: how to read and playback stereo?;
#X obj 252 372 / 44100;
#X msg 184 464 1;
#X obj 184 493 /;
#X obj 184 520 phasor~;
#X obj 252 554 *~;
#X obj 365 684 osc~ 12000;
#X obj 223 462 del;
#X obj 343 425 * 1000;
#X obj 184 412 t b f b;
#X text 250 461 stop playback after phasor~ reset;
#X obj 252 527 line~;
#X msg 252 485 1 \$1;
#X msg 220 487 0;
#X obj 253 698 *~;
#X msg 422 654 0;
#X text 447 653 reset phase;
#X obj 253 728 hip~ 6000;
#X obj 287 814 osc~ 12000;
#X msg 344 789 0;
#X obj 254 838 *~;
#X obj 254 871 lop~ 5500;
#X obj 253 633 lop~ 6000;
#X text 434 682 1st ring modulator;
#X text 258 651 1st freq. filter;
#X text 260 745 2nd freq. filter;
#X text 357 814 2nd ring modulator;
#X text 319 871 3rd freq. filter;
#X obj 220 1050 +~;
#X obj 218 999 *~;
#X obj 250 1000 *~;
#X obj 323 935 sig~;
#X obj 277 935 sig~ 1;
#X obj 277 965 -~;
#X floatatom 150 547 5 0 0 0 - - -;
#X obj 580 496 osc~ 0.5;
#X obj 537 459 +~;
#X obj 542 645 r \$0-frequency;
#X obj 492 786 r \$0-frequency;
#X obj 570 448 r \$0-pmfreq;
#X obj 636 537 r \$0-pmindex;
#X obj 335 905 r \$0-xfade;
#X obj 587 569 *~ 0.0001;
#X obj 152 111 inlet;
#X obj 160 1134 outlet~;
#X obj 263 1144 outlet;
#X msg 252 211 read -resize ../assets/samples/Al_Baqara_253-262_010.wav
\$1-SAMPLE-10;
#X obj 252 290 s \$0-SAMPCOUNT-10;
#X obj 250 315 table \$0-SAMPLE-10;
#X obj 252 345 r \$0-SAMPCOUNT-10;
#X obj 313 532 r \$0-SAMPCOUNT-10;
#X obj 253 591 tabread4~ \$0-SAMPLE-10;
#X connect 0 0 2 0;
#X connect 0 0 51 0;
#X connect 1 0 3 0;
#X connect 3 0 50 0;
#X connect 5 0 12 0;
#X connect 5 0 13 0;
#X connect 6 0 7 0;
#X connect 7 0 8 0;
#X connect 7 0 38 0;
#X connect 9 0 55 0;
#X connect 10 0 18 1;
#X connect 11 0 17 0;
#X connect 11 0 49 0;
#X connect 12 0 11 1;
#X connect 12 0 16 0;
#X connect 13 0 6 0;
#X connect 13 1 7 1;
#X connect 13 2 11 0;
#X connect 15 0 40 0;
#X connect 16 0 15 0;
#X connect 16 0 19 0;
#X connect 17 0 15 0;
#X connect 18 0 21 0;
#X connect 19 0 10 1;
#X connect 19 0 23 0;
#X connect 21 0 24 0;
#X connect 21 0 33 0;
#X connect 22 0 24 1;
#X connect 23 0 22 1;
#X connect 24 0 25 0;
#X connect 25 0 34 0;
#X connect 26 0 18 0;
#X connect 32 0 48 0;
#X connect 33 0 32 0;
#X connect 34 0 32 1;
#X connect 35 0 37 1;
#X connect 35 0 33 1;
#X connect 36 0 37 0;
#X connect 37 0 34 1;
#X connect 39 0 46 0;
#X connect 40 0 9 0;
#X connect 41 0 10 0;
#X connect 42 0 22 0;
#X connect 43 0 39 0;
#X connect 44 0 46 1;
#X connect 45 0 35 0;
#X connect 46 0 40 1;
#X connect 47 0 1 0;
#X connect 50 0 0 0;
#X connect 53 0 5 0;
#X connect 54 0 9 1;
#X connect 55 0 26 0;
#X restore 1021 545 pd piece-10;
#N canvas 0 23 2560 1391 piece-03 0;
#X obj 285 312 soundfiler;
#X obj 286 449 / 44100;
#X msg 218 541 1;
#X obj 218 570 /;
#X obj 218 597 phasor~;
#X obj 286 631 *~;
#X floatatom 403 353 20 0 0 0 - - -;
#X msg 257 565 0;
#X obj 285 248 f \$0;
#X obj 399 761 osc~ 12000;
#X obj 257 539 del;
#X obj 377 502 * 1000;
#X obj 218 489 t b f b;
#X text 284 538 stop playback after phasor~ reset;
#X obj 286 604 line~;
#X text 356 312 TODO: how to read and playback stereo?;
#X msg 286 562 1 \$1;
#X msg 329 575 0;
#X obj 287 775 *~;
#X msg 456 731 0;
#X text 481 730 reset phase;
#X obj 287 805 hip~ 6000;
#X obj 321 891 osc~ 12000;
#X msg 378 866 0;
#X obj 288 915 *~;
#X obj 288 948 lop~ 5500;
#X obj 287 710 lop~ 6000;
#X text 468 759 1st ring modulator;
#X text 292 728 1st freq. filter;
#X text 294 822 2nd freq. filter;
#X text 391 891 2nd ring modulator;
#X text 353 948 3rd freq. filter;
#X obj 263 1145 +~;
#X obj 252 1076 *~;
#X obj 284 1077 *~;
#X obj 357 1012 sig~;
#X obj 311 1012 sig~ 1;
#X obj 311 1042 -~;
#X floatatom 184 624 5 0 0 0 - - -;
#X obj 614 573 osc~ 0.5;
#X obj 571 536 +~;
#X obj 576 722 r \$0-frequency;
#X obj 526 863 r \$0-frequency;
#X obj 604 525 r \$0-pmfreq;
#X obj 670 614 r \$0-pmindex;
#X obj 369 982 r \$0-xfade;
#X obj 621 646 *~ 0.0001;
#X obj 254 186 inlet;
#X obj 228 1228 outlet~;
#X obj 398 1239 outlet;
#X msg 285 274 read -resize ../assets/samples/Al_Baqara_253-262_003.wav
\$1-SAMPLE-03;
#X obj 285 353 s \$0-SAMPCOUNT-03;
#X obj 284 387 table \$0-SAMPLE-03;
#X obj 286 422 r \$0-SAMPCOUNT-03;
#X obj 347 609 r \$0-SAMPCOUNT-03;
#X obj 287 668 tabread4~ \$0-SAMPLE-03;
#X connect 0 0 6 0;
#X connect 0 0 51 0;
#X connect 1 0 11 0;
#X connect 1 0 12 0;
#X connect 2 0 3 0;
#X connect 3 0 4 0;
#X connect 3 0 38 0;
#X connect 5 0 55 0;
#X connect 8 0 50 0;
#X connect 9 0 18 1;
#X connect 10 0 7 0;
#X connect 10 0 17 0;
#X connect 10 0 49 0;
#X connect 11 0 10 1;
#X connect 11 0 16 0;
#X connect 12 0 2 0;
#X connect 12 1 3 1;
#X connect 12 2 10 0;
#X connect 14 0 40 0;
#X connect 16 0 14 0;
#X connect 16 0 19 0;
#X connect 17 0 14 0;
#X connect 18 0 21 0;
#X connect 19 0 9 1;
#X connect 19 0 23 0;
#X connect 21 0 24 0;
#X connect 21 0 33 0;
#X connect 22 0 24 1;
#X connect 23 0 22 1;
#X connect 24 0 25 0;
#X connect 25 0 34 0;
#X connect 26 0 18 0;
#X connect 32 0 48 0;
#X connect 33 0 32 0;
#X connect 34 0 32 1;
#X connect 35 0 37 1;
#X connect 35 0 33 1;
#X connect 36 0 37 0;
#X connect 37 0 34 1;
#X connect 39 0 46 0;
#X connect 40 0 5 0;
#X connect 41 0 9 0;
#X connect 42 0 22 0;
#X connect 43 0 39 0;
#X connect 44 0 46 1;
#X connect 45 0 35 0;
#X connect 46 0 40 1;
#X connect 47 0 8 0;
#X connect 50 0 0 0;
#X connect 53 0 1 0;
#X connect 54 0 5 1;
#X connect 55 0 26 0;
#X restore 1021 335 pd piece-03;
#X obj 1500 260 s \$0-finished-01;
#N canvas 709 302 1032 1014 Schroeder-reverb 0;
#X obj 91 68 inlet~;
#X obj 167 67 inlet~;
#X obj 183 765 outlet~;
#X obj 298 761 outlet~;
#X obj 231 344 +~;
#X obj 416 476 +~;
#X obj 303 345 +~;
#X obj 507 476 +~;
#X obj 416 530 +~;
#X obj 456 474 -~;
#X obj 550 477 -~;
#X obj 509 529 -~;
#X obj 551 530 -~;
#X obj 461 531 +~;
#X obj 416 560 *~ 0.4;
#X obj 461 568 *~ 0.37;
#X obj 509 581 *~ 0.333;
#X obj 551 601 *~ 0.3;
#X text 572 306 <-- recirculating Schroeder reverb;
#X obj 430 284 delread~ delayA 101;
#X obj 440 312 delread~ delayB 143;
#X obj 465 341 delread~ delayC 165;
#X obj 541 372 delread~ delayD 177;
#X obj 407 691 delwrite~ delayA 1000;
#X obj 458 670 delwrite~ delayB 1000;
#X obj 509 645 delwrite~ delayC 1000;
#X obj 551 623 delwrite~ delayD 1000;
#X floatatom 410 254 5 0 0 0 - - -;
#X floatatom 462 255 5 0 0 0 - - -;
#X floatatom 512 253 5 0 0 0 - - -;
#X floatatom 560 252 5 0 0 0 - - -;
#X obj 343 197 r \$0-delayA;
#X obj 418 197 r \$0-delayB;
#X obj 500 197 r \$0-delayC;
#X obj 580 197 r \$0-delayD;
#X connect 0 0 4 0;
#X connect 1 0 6 0;
#X connect 4 0 5 0;
#X connect 4 0 9 0;
#X connect 4 0 2 0;
#X connect 5 0 8 0;
#X connect 5 0 11 0;
#X connect 6 0 5 1;
#X connect 6 0 9 1;
#X connect 6 0 3 0;
#X connect 7 0 8 1;
#X connect 7 0 11 1;
#X connect 8 0 14 0;
#X connect 9 0 13 0;
#X connect 9 0 12 0;
#X connect 10 0 12 1;
#X connect 10 0 13 1;
#X connect 11 0 16 0;
#X connect 12 0 17 0;
#X connect 13 0 15 0;
#X connect 14 0 23 0;
#X connect 15 0 24 0;
#X connect 16 0 25 0;
#X connect 17 0 26 0;
#X connect 19 0 4 1;
#X connect 20 0 6 1;
#X connect 21 0 7 0;
#X connect 21 0 10 0;
#X connect 22 0 7 1;
#X connect 22 0 10 1;
#X connect 27 0 19 0;
#X connect 28 0 20 0;
#X connect 29 0 21 0;
#X connect 30 0 22 0;
#X connect 31 0 27 0;
#X connect 32 0 28 0;
#X connect 33 0 29 0;
#X connect 34 0 30 0;
#X restore 613 1004 pd Schroeder-reverb;
#X obj 1500 290 s \$0-finished-02;
#X obj 1500 320 s \$0-finished-03;
#X obj 1500 350 s \$0-finished-04;
#X obj 1500 380 s \$0-finished-05;
#X obj 1500 410 s \$0-finished-06;
#X obj 1500 440 s \$0-finished-07;
#X obj 1500 470 s \$0-finished-08;
#X obj 1500 500 s \$0-finished-09;
#X obj 1500 530 s \$0-finished-10;
#X obj 1500 560 s \$0-finished-11;
#X obj 1500 590 s \$0-finished-12;
#X obj 1500 620 s \$0-finished-13;
#X obj 1500 650 s \$0-finished-14;
#X obj 1500 680 s \$0-finished-15;
#X obj 613 970 bitcrusher~;
#X obj 676 946 r \$0-bitdepth;
#X obj 908 854 +~;
#X obj 1500 738 delwrite~ beatg 1000;
#X obj 946 881 delread~ beatg;
#X obj 909 908 *~ 0.33;
#X obj 679 859 r \$0-delaytime;
#X obj 538 1033 *~ 0.33;
#X obj 647 1064 *~ 1;
#X obj 668 1039 r \$0-compvol;
#X obj 761 1064 *~ 1;
#X obj 782 1039 r \$0-compvol;
#X obj 799 858 +~;
#X obj 799 878 *~ 0.33;
#N canvas 256 467 450 300 vardelay 0;
#X obj 131 222 outlet~;
#X obj 105 144 *~ 0.5;
#X obj 173 143 *~ 0.5;
#X obj 105 69 *~ 10;
#X obj 106 93 +~ 15;
#X obj 174 70 *~ 10;
#X obj 175 93 +~ 15;
#X obj 105 45 osc~ 0.54;
#X obj 175 47 osc~ 0.21;
#X obj 140 181 +~;
#X obj 105 117 vd~ delay1;
#X obj 174 117 vd~ delay1;
#X obj 145 1 r \$0-delaytime;
#X obj 145 21 / 10;
#X connect 1 0 9 0;
#X connect 2 0 9 1;
#X connect 3 0 4 0;
#X connect 4 0 10 0;
#X connect 5 0 6 0;
#X connect 6 0 11 0;
#X connect 7 0 3 0;
#X connect 8 0 5 0;
#X connect 9 0 0 0;
#X connect 10 0 1 0;
#X connect 11 0 2 0;
#X connect 12 0 13 0;
#X connect 13 0 3 1;
#X connect 13 0 5 1;
#X restore 826 858 pd vardelay;
#X connect 1 0 2 1;
#X connect 2 0 7 0;
#X connect 3 0 43 0;
#X connect 5 0 46 0;
#X connect 5 1 9 0;
#X connect 5 1 23 0;
#X connect 6 0 41 0;
#X connect 6 0 42 0;
#X connect 7 0 39 0;
#X connect 8 0 5 0;
#X connect 9 0 46 0;
#X connect 9 1 22 0;
#X connect 9 1 25 0;
#X connect 10 0 0 0;
#X connect 10 0 2 0;
#X connect 10 1 11 0;
#X connect 10 1 27 0;
#X connect 11 0 0 0;
#X connect 11 0 2 0;
#X connect 11 1 12 0;
#X connect 11 1 28 0;
#X connect 12 0 0 0;
#X connect 12 0 2 0;
#X connect 12 1 13 0;
#X connect 12 1 29 0;
#X connect 13 0 0 0;
#X connect 13 0 2 0;
#X connect 13 1 14 0;
#X connect 13 1 30 0;
#X connect 14 0 2 0;
#X connect 14 0 0 0;
#X connect 14 1 15 0;
#X connect 14 1 31 0;
#X connect 15 0 0 0;
#X connect 15 0 51 0;
#X connect 15 1 21 0;
#X connect 15 1 32 0;
#X connect 16 0 0 0;
#X connect 16 0 51 0;
#X connect 16 1 17 0;
#X connect 16 1 34 0;
#X connect 17 0 0 0;
#X connect 17 0 51 0;
#X connect 17 1 18 0;
#X connect 17 1 35 0;
#X connect 18 0 0 0;
#X connect 18 0 51 0;
#X connect 18 1 19 0;
#X connect 18 1 36 0;
#X connect 19 0 0 0;
#X connect 19 0 51 0;
#X connect 19 1 20 0;
#X connect 19 1 37 0;
#X connect 20 0 0 0;
#X connect 20 0 51 0;
#X connect 20 1 38 0;
#X connect 21 0 0 0;
#X connect 21 0 51 0;
#X connect 21 1 16 0;
#X connect 21 1 33 0;
#X connect 22 0 0 0;
#X connect 22 0 2 0;
#X connect 22 1 10 0;
#X connect 22 1 26 0;
#X connect 24 0 47 0;
#X connect 24 1 49 0;
#X connect 39 0 24 0;
#X connect 39 0 24 1;
#X connect 40 0 39 1;
#X connect 41 0 44 0;
#X connect 43 0 41 1;
#X connect 44 0 4 0;
#X connect 44 0 4 1;
#X connect 45 0 1 0;
#X connect 46 0 4 0;
#X connect 46 0 4 1;
#X connect 47 0 4 0;
#X connect 48 0 47 1;
#X connect 49 0 4 1;
#X connect 50 0 49 1;
#X connect 52 0 39 0;
#X connect 53 0 51 1;
