#N canvas 0 23 2560 1391 10;
#X obj 102 238 soundfiler;
#X obj 102 152 bng 15 250 50 0 empty empty empty 17 7 0 10 -262144
-1 -1;
#X obj 103 375 / 44100;
#X msg 35 467 1;
#X obj 35 496 /;
#X obj 35 523 phasor~;
#X obj 103 557 *~;
#X floatatom 220 279 20 0 0 0 - - -;
#X msg 74 491 0;
#X text 122 151 read 1;
#X obj 103 348 r \$0-SAMPCOUNT-01;
#X obj 102 279 s \$0-SAMPCOUNT-01;
#X obj 164 535 r \$0-SAMPCOUNT-01;
#X obj 104 594 tabread4~ \$0-SAMPLE-01;
#X obj 102 174 f \$0;
#X obj 216 687 osc~ 12000;
#X obj 74 465 del;
#X obj 194 428 * 1000;
#X obj 35 415 t b f b;
#X text 101 464 stop playback after phasor~ reset;
#X obj 103 530 line~;
#X text 173 238 TODO: how to read and playback stereo?;
#X msg 103 488 1 \$1;
#X msg 146 501 0;
#X obj 104 701 *~;
#X msg 273 657 0;
#X text 298 656 reset phase;
#X obj 104 731 hip~ 6000;
#X obj 138 817 osc~ 12000;
#X msg 195 792 0;
#X obj 105 841 *~;
#X obj 105 874 lop~ 5500;
#X obj 104 636 lop~ 6000;
#X text 285 685 1st ring modulator;
#X text 109 654 1st freq. filter;
#X text 111 748 2nd freq. filter;
#X text 208 817 2nd ring modulator;
#X text 170 874 3rd freq. filter;
#X msg 102 200 read -resize ../assets/samples/Al_Baqara_253-262_001.wav
\$1-SAMPLE-01;
#X obj 176 119 loadbang;
#X obj 80 1071 +~;
#X obj 155 1087 delwrite~ delay1 1000;
#X obj 97 1126 delread~ delay1;
#X floatatom 97 1103 5 0 1000 0 - - -;
#X obj 82 1153 +~;
#X obj 232 1223 *~ 0.5;
#X obj 199 1124 r \$0-delaytime;
#X text 567 126 BEATING OF SINE WAVES;
#X obj 597 148 hsl 515 18 55 440 1 0 \$0-freq1 empty empty -2 -6 1
8 -2688 -1 -1 0 0;
#X obj 597 171 hsl 515 18 55 440 1 0 \$0-freq2 empty empty -2 -6 1
8 -1856 -1 -1 0 0;
#X obj 597 194 hsl 515 18 44 440 1 0 \$0-freq3 empty empty -2 -6 1
8 -64 -1 -1 0 0;
#X obj 561 371 *~;
#X obj 571 147 tgl 20 0 \$0-amp1 empty empty 0 -6 1 8 -2688 -1 -1 0
1;
#X obj 995 478 dac~;
#X obj 984 423 *~;
#X obj 571 170 tgl 20 0 \$0-amp2 empty empty 0 -6 1 8 -1856 -1 -1 0
1;
#X obj 571 193 tgl 20 0 \$0-amp3 empty empty 0 -6 1 8 -64 -1 -1 0 1
;
#X obj 1130 141 vsl 22 200 0 1 0 0 empty empty amplitude -9 -8 1 10
-4032 -1 -1 0 0;
#X obj 561 275 osc~ 55;
#X obj 561 250 r \$0-freq1;
#X obj 586 304 r \$0-amp1;
#X obj 586 348 line~;
#X msg 586 326 \$1 10;
#X obj 684 371 *~;
#X obj 684 275 osc~ 55;
#X obj 709 348 line~;
#X msg 709 326 \$1 10;
#X obj 808 371 *~;
#X obj 808 275 osc~ 55;
#X obj 833 348 line~;
#X msg 833 326 \$1 10;
#X obj 709 304 r \$0-amp2;
#X obj 684 250 r \$0-freq2;
#X obj 808 250 r \$0-freq3;
#X obj 833 304 r \$0-amp3;
#X obj 597 217 hsl 515 18 44 440 1 0 \$0-freq4 empty empty -2 -6 1
8 -38 -1 -1 0 0;
#X obj 571 216 tgl 20 0 \$0-amp4 empty empty 0 -6 1 8 -38 -1 -1 0 1
;
#X obj 929 371 *~;
#X obj 929 275 osc~ 55;
#X obj 954 348 line~;
#X msg 954 326 \$1 10;
#X obj 929 250 r \$0-freq4;
#X obj 954 304 r \$0-amp4;
#X obj 69 1002 *~;
#X obj 101 1003 *~;
#X obj 174 938 sig~;
#X obj 128 938 sig~ 1;
#X obj 128 968 -~;
#X floatatom 226 1456 5 0 0 0 - - -;
#X text 294 1079 <-- simple simple delay (use Shaker?);
#X floatatom 1 550 5 0 0 0 - - -;
#X floatatom 1048 417 5 0 0 0 - - -;
#X obj 112 1449 vcf~ 1;
#X obj 1033 66 r \$0-master-level;
#X obj 441 1534 dac~;
#X obj 429 1285 +~;
#X obj 615 1382 +~;
#X obj 501 1286 +~;
#X obj 706 1382 +~;
#X obj 615 1436 +~;
#X obj 655 1380 -~;
#X obj 749 1383 -~;
#X obj 708 1435 -~;
#X obj 750 1436 -~;
#X obj 660 1437 +~;
#X obj 615 1466 *~ 0.4;
#X obj 660 1474 *~ 0.37;
#X obj 708 1487 *~ 0.333;
#X obj 750 1507 *~ 0.3;
#X text 667 1173 <-- recirculating Schroeder reverb;
#X obj 525 1151 delread~ delayA 101;
#X obj 535 1179 delread~ delayB 143;
#X obj 560 1208 delread~ delayC 165;
#X obj 636 1239 delread~ delayD 177;
#X obj 606 1597 delwrite~ delayA 1000;
#X obj 657 1576 delwrite~ delayB 1000;
#X obj 708 1551 delwrite~ delayC 1000;
#X obj 750 1529 delwrite~ delayD 1000;
#X floatatom 530 1114 5 0 0 0 - - -;
#X floatatom 569 1113 5 0 0 0 - - -;
#X floatatom 612 1115 5 0 0 0 - - -;
#X floatatom 660 1114 5 0 0 0 - - -;
#X obj 431 499 osc~ 0.5;
#X obj 388 462 +~;
#X obj 393 648 r \$0-frequency;
#X obj 343 789 r \$0-frequency;
#X obj 421 451 r \$0-pmfreq;
#X obj 487 540 r \$0-pmindex;
#X obj 186 908 r \$0-xfade;
#X obj 1339 257 soundfiler;
#X obj 1339 171 bng 15 250 50 0 empty empty empty 17 7 0 10 -262144
-1 -1;
#X floatatom 1457 298 20 0 0 0 - - -;
#X obj 1339 193 f \$0;
#X text 1410 257 TODO: how to read and playback stereo?;
#X obj 101 313 table \$0-SAMPLE-01;
#X obj 1337 323 table \$0-SAMPLE-02;
#X msg 1339 219 read -resize ../assets/samples/Al_Baqara_253-262_002.wav
\$1-SAMPLE-02;
#X obj 1339 298 s \$0-SAMPCOUNT-02;
#X obj 1339 380 / 44100;
#X msg 1271 472 1;
#X obj 1271 501 /;
#X obj 1271 528 phasor~;
#X obj 1339 562 *~;
#X obj 1452 692 osc~ 12000;
#X obj 1310 470 del;
#X obj 1430 433 * 1000;
#X obj 1271 420 t b f b;
#X text 1337 469 stop playback after phasor~ reset;
#X obj 1339 535 line~;
#X msg 1339 493 1 \$1;
#X msg 1307 495 0;
#X obj 1340 706 *~;
#X msg 1509 662 0;
#X text 1534 661 reset phase;
#X obj 1340 736 hip~ 6000;
#X obj 1374 822 osc~ 12000;
#X msg 1431 797 0;
#X obj 1341 846 *~;
#X obj 1341 879 lop~ 5500;
#X obj 1340 641 lop~ 6000;
#X text 1521 690 1st ring modulator;
#X text 1345 659 1st freq. filter;
#X text 1347 753 2nd freq. filter;
#X text 1444 822 2nd ring modulator;
#X text 1406 879 3rd freq. filter;
#X obj 1316 1076 +~;
#X obj 1391 1092 delwrite~ delay1 1000;
#X obj 1333 1131 delread~ delay1;
#X floatatom 1333 1108 5 0 1000 0 - - -;
#X obj 1318 1158 +~;
#X obj 1435 1129 r \$0-delaytime;
#X obj 1305 1007 *~;
#X obj 1337 1008 *~;
#X obj 1410 943 sig~;
#X obj 1364 943 sig~ 1;
#X obj 1364 973 -~;
#X text 1530 1084 <-- simple simple delay (use Shaker?);
#X floatatom 1237 555 5 0 0 0 - - -;
#X obj 1667 504 osc~ 0.5;
#X obj 1624 467 +~;
#X obj 1629 653 r \$0-frequency;
#X obj 1579 794 r \$0-frequency;
#X obj 1657 456 r \$0-pmfreq;
#X obj 1723 545 r \$0-pmindex;
#X obj 1422 913 r \$0-xfade;
#X obj 1339 353 r \$0-SAMPCOUNT-02;
#X obj 1400 540 r \$0-SAMPCOUNT-02;
#X obj 1340 599 tabread4~ \$0-SAMPLE-02;
#X obj 1986 246 soundfiler;
#X obj 1986 160 bng 15 250 50 0 empty empty empty 17 7 0 10 -262144
-1 -1;
#X floatatom 2104 287 20 0 0 0 - - -;
#X obj 1986 182 f \$0;
#X text 2057 246 TODO: how to read and playback stereo?;
#X obj 1986 369 / 44100;
#X msg 1918 461 1;
#X obj 1918 490 /;
#X obj 1918 517 phasor~;
#X obj 1986 551 *~;
#X obj 2099 681 osc~ 12000;
#X obj 1957 459 del;
#X obj 2077 422 * 1000;
#X obj 1918 409 t b f b;
#X text 1984 458 stop playback after phasor~ reset;
#X obj 1986 524 line~;
#X msg 1986 482 1 \$1;
#X msg 1954 484 0;
#X obj 1987 695 *~;
#X msg 2156 651 0;
#X text 2181 650 reset phase;
#X obj 1987 725 hip~ 6000;
#X obj 2021 811 osc~ 12000;
#X msg 2078 786 0;
#X obj 1988 835 *~;
#X obj 1988 868 lop~ 5500;
#X obj 1987 630 lop~ 6000;
#X text 2168 679 1st ring modulator;
#X text 1992 648 1st freq. filter;
#X text 1994 742 2nd freq. filter;
#X text 2091 811 2nd ring modulator;
#X text 2053 868 3rd freq. filter;
#X obj 1963 1065 +~;
#X obj 2038 1081 delwrite~ delay1 1000;
#X obj 1980 1120 delread~ delay1;
#X floatatom 1980 1097 5 0 1000 0 - - -;
#X obj 1965 1147 +~;
#X obj 2082 1118 r \$0-delaytime;
#X obj 1952 996 *~;
#X obj 1984 997 *~;
#X obj 2057 932 sig~;
#X obj 2011 932 sig~ 1;
#X obj 2011 962 -~;
#X text 2177 1073 <-- simple simple delay (use Shaker?);
#X floatatom 1884 544 5 0 0 0 - - -;
#X obj 2314 493 osc~ 0.5;
#X obj 2271 456 +~;
#X obj 2276 642 r \$0-frequency;
#X obj 2226 783 r \$0-frequency;
#X obj 2304 445 r \$0-pmfreq;
#X obj 2370 534 r \$0-pmindex;
#X obj 2069 902 r \$0-xfade;
#X msg 1986 208 read -resize ../assets/samples/Al_Baqara_253-262_003.wav
\$1-SAMPLE-03;
#X obj 1986 287 s \$0-SAMPCOUNT-03;
#X obj 1984 312 table \$0-SAMPLE-03;
#X obj 1986 342 r \$0-SAMPCOUNT-03;
#X obj 2047 529 r \$0-SAMPCOUNT-03;
#X obj 1987 588 tabread4~ \$0-SAMPLE-03;
#X obj 1674 577 *~ 0.0001;
#X obj 2321 566 *~ 0.0001;
#X obj 438 572 *~ 0.0001;
#X obj 125 1397 sig~;
#X floatatom 122 1371 5 0 0 0 - - -;
#X obj 137 1322 r \$0-vcfcenter;
#X obj 302 1435 r \$0-vcfq;
#X connect 0 0 7 0;
#X connect 0 0 11 0;
#X connect 1 0 14 0;
#X connect 2 0 17 0;
#X connect 2 0 18 0;
#X connect 3 0 4 0;
#X connect 4 0 5 0;
#X connect 4 0 90 0;
#X connect 6 0 13 0;
#X connect 10 0 2 0;
#X connect 12 0 6 1;
#X connect 13 0 32 0;
#X connect 14 0 38 0;
#X connect 15 0 24 1;
#X connect 16 0 8 0;
#X connect 16 0 23 0;
#X connect 16 0 130 0;
#X connect 17 0 16 1;
#X connect 17 0 22 0;
#X connect 18 0 3 0;
#X connect 18 1 4 1;
#X connect 18 2 16 0;
#X connect 20 0 123 0;
#X connect 22 0 20 0;
#X connect 22 0 25 0;
#X connect 23 0 20 0;
#X connect 24 0 27 0;
#X connect 25 0 15 1;
#X connect 25 0 29 0;
#X connect 27 0 30 0;
#X connect 27 0 83 0;
#X connect 28 0 30 1;
#X connect 29 0 28 1;
#X connect 30 0 31 0;
#X connect 31 0 84 0;
#X connect 32 0 24 0;
#X connect 38 0 0 0;
#X connect 39 0 14 0;
#X connect 40 0 41 0;
#X connect 40 0 44 0;
#X connect 42 0 44 1;
#X connect 43 0 42 0;
#X connect 44 0 45 0;
#X connect 45 0 95 0;
#X connect 45 0 97 0;
#X connect 46 0 42 0;
#X connect 51 0 54 0;
#X connect 54 0 53 0;
#X connect 54 0 53 1;
#X connect 57 0 54 1;
#X connect 57 0 91 0;
#X connect 58 0 51 0;
#X connect 59 0 58 0;
#X connect 60 0 62 0;
#X connect 61 0 51 1;
#X connect 62 0 61 0;
#X connect 63 0 54 0;
#X connect 64 0 63 0;
#X connect 65 0 63 1;
#X connect 66 0 65 0;
#X connect 67 0 54 0;
#X connect 68 0 67 0;
#X connect 69 0 67 1;
#X connect 70 0 69 0;
#X connect 71 0 66 0;
#X connect 72 0 64 0;
#X connect 73 0 68 0;
#X connect 74 0 70 0;
#X connect 77 0 54 0;
#X connect 78 0 77 0;
#X connect 79 0 77 1;
#X connect 80 0 79 0;
#X connect 81 0 78 0;
#X connect 82 0 80 0;
#X connect 83 0 40 0;
#X connect 84 0 40 1;
#X connect 85 0 87 1;
#X connect 85 0 83 1;
#X connect 86 0 87 0;
#X connect 87 0 84 1;
#X connect 88 0 92 2;
#X connect 92 0 94 0;
#X connect 92 0 94 1;
#X connect 93 0 57 0;
#X connect 95 0 96 0;
#X connect 95 0 100 0;
#X connect 95 0 92 0;
#X connect 96 0 99 0;
#X connect 96 0 102 0;
#X connect 97 0 96 1;
#X connect 97 0 100 1;
#X connect 97 0 92 0;
#X connect 98 0 99 1;
#X connect 98 0 102 1;
#X connect 99 0 105 0;
#X connect 100 0 104 0;
#X connect 100 0 103 0;
#X connect 101 0 103 1;
#X connect 101 0 104 1;
#X connect 102 0 107 0;
#X connect 103 0 108 0;
#X connect 104 0 106 0;
#X connect 105 0 114 0;
#X connect 106 0 115 0;
#X connect 107 0 116 0;
#X connect 108 0 117 0;
#X connect 110 0 95 1;
#X connect 111 0 97 1;
#X connect 112 0 98 0;
#X connect 112 0 101 0;
#X connect 113 0 98 1;
#X connect 113 0 101 1;
#X connect 118 0 110 0;
#X connect 119 0 111 0;
#X connect 120 0 112 0;
#X connect 121 0 113 0;
#X connect 122 0 248 0;
#X connect 123 0 6 0;
#X connect 124 0 15 0;
#X connect 125 0 28 0;
#X connect 126 0 122 0;
#X connect 127 0 248 1;
#X connect 128 0 85 0;
#X connect 129 0 131 0;
#X connect 129 0 137 0;
#X connect 130 0 132 0;
#X connect 132 0 136 0;
#X connect 136 0 129 0;
#X connect 138 0 145 0;
#X connect 138 0 146 0;
#X connect 139 0 140 0;
#X connect 140 0 141 0;
#X connect 140 0 177 0;
#X connect 142 0 187 0;
#X connect 143 0 151 1;
#X connect 144 0 150 0;
#X connect 144 0 189 0;
#X connect 145 0 144 1;
#X connect 145 0 149 0;
#X connect 146 0 139 0;
#X connect 146 1 140 1;
#X connect 146 2 144 0;
#X connect 148 0 179 0;
#X connect 149 0 148 0;
#X connect 149 0 152 0;
#X connect 150 0 148 0;
#X connect 151 0 154 0;
#X connect 152 0 143 1;
#X connect 152 0 156 0;
#X connect 154 0 157 0;
#X connect 154 0 171 0;
#X connect 155 0 157 1;
#X connect 156 0 155 1;
#X connect 157 0 158 0;
#X connect 158 0 172 0;
#X connect 159 0 151 0;
#X connect 165 0 166 0;
#X connect 165 0 169 0;
#X connect 167 0 169 1;
#X connect 168 0 167 0;
#X connect 169 0 45 0;
#X connect 170 0 167 0;
#X connect 171 0 165 0;
#X connect 172 0 165 1;
#X connect 173 0 175 1;
#X connect 173 0 171 1;
#X connect 174 0 175 0;
#X connect 175 0 172 1;
#X connect 178 0 246 0;
#X connect 179 0 142 0;
#X connect 180 0 143 0;
#X connect 181 0 155 0;
#X connect 182 0 178 0;
#X connect 183 0 246 1;
#X connect 184 0 173 0;
#X connect 185 0 138 0;
#X connect 186 0 142 1;
#X connect 187 0 159 0;
#X connect 188 0 190 0;
#X connect 188 0 241 0;
#X connect 189 0 191 0;
#X connect 191 0 240 0;
#X connect 193 0 200 0;
#X connect 193 0 201 0;
#X connect 194 0 195 0;
#X connect 195 0 196 0;
#X connect 195 0 232 0;
#X connect 197 0 245 0;
#X connect 198 0 206 1;
#X connect 199 0 205 0;
#X connect 200 0 199 1;
#X connect 200 0 204 0;
#X connect 201 0 194 0;
#X connect 201 1 195 1;
#X connect 201 2 199 0;
#X connect 203 0 234 0;
#X connect 204 0 203 0;
#X connect 204 0 207 0;
#X connect 205 0 203 0;
#X connect 206 0 209 0;
#X connect 207 0 198 1;
#X connect 207 0 211 0;
#X connect 209 0 212 0;
#X connect 209 0 226 0;
#X connect 210 0 212 1;
#X connect 211 0 210 1;
#X connect 212 0 213 0;
#X connect 213 0 227 0;
#X connect 214 0 206 0;
#X connect 220 0 221 0;
#X connect 220 0 224 0;
#X connect 222 0 224 1;
#X connect 223 0 222 0;
#X connect 224 0 45 0;
#X connect 225 0 222 0;
#X connect 226 0 220 0;
#X connect 227 0 220 1;
#X connect 228 0 230 1;
#X connect 228 0 226 1;
#X connect 229 0 230 0;
#X connect 230 0 227 1;
#X connect 233 0 247 0;
#X connect 234 0 197 0;
#X connect 235 0 198 0;
#X connect 236 0 210 0;
#X connect 237 0 233 0;
#X connect 238 0 247 1;
#X connect 239 0 228 0;
#X connect 240 0 188 0;
#X connect 243 0 193 0;
#X connect 244 0 197 1;
#X connect 245 0 214 0;
#X connect 246 0 179 1;
#X connect 247 0 234 1;
#X connect 248 0 123 1;
#X connect 249 0 92 1;
#X connect 250 0 249 0;
#X connect 251 0 250 0;
#X connect 252 0 92 2;
